<svg id="all" viewBox="192 291 193 184" xmlns="http://www.w3.org/2000/svg" style="filter: contrast(90%) brightness(0.9) sepia(10%)">
	<defs>
		<style type="text/css">
			@import url('https://fonts.googleapis.com/css?family=Pacifico');
		</style>
		<style>
			.cls-1{fill:#696870;}.cls-2{fill:#7c798d;}.cls-3{fill:#15191f;}.cls-4{fill:#5c5a5a;}.cls-5,.cls-68{fill:#fff;}.cls-6,.cls-67{fill:none;}.cls-6{stroke:#5c5a5a;}.cls-6,.cls-67,.cls-68,.cls-69{stroke-miterlimit:10;stroke-width:0.5px;}.cls-7{fill:#433833;}.cls-8{fill:#5a4a44;}.cls-9{fill:#b5b5b5;}.cls-10{fill:#797979;}.cls-11{fill:#f2f2f2;}.cls-12{fill:#2d2522;}.cls-13{fill:#5a5b5c;}.cls-14{fill:#f7f7f7;}.cls-15{fill:#dbdbdb;}.cls-16{fill:#444141;}.cls-17{fill:#5b5b5b;}.cls-18{font-size:6.26px;fill:#56ff4d;font-family: Pacifico, Helvetica;}.cls-19{fill:#a4a4a4;}.cls-20{fill:#888;}.cls-21{fill:#7f7f7f;}.cls-22{fill:#6e6e6e;}.cls-23{fill:#000000;}.cls-24{fill:#dd5c52;}.cls-25{fill:#d53327;}.cls-26{fill:#bfbfbf;}.cls-27{fill:#e5ad6a;}.cls-28{fill:#f3bb6f;}.cls-29{fill:#f5c788;}.cls-30{fill:#8f8f8f;}.cls-31{fill:#3a302d;}.cls-32{fill:#ffc900;}.cls-33{fill:#ffed1b;}.cls-34{fill:#ffe300;}.cls-35{fill:#362714;}.cls-36{fill:#efd7ba;}.cls-37{fill:#b3a18b;}.cls-38{fill:#ffefcf;}.cls-39{fill:#d6d6d6;}.cls-40{fill:#a666ff;}.cls-41{fill:#fc6;}.cls-42{fill:#5ae6ff;}.cls-43{fill:#e57373;}.cls-44{fill:#acff5a;}.cls-45{fill:#232323;}.cls-46{fill:#121212;}.cls-47{fill:#488d44;}.cls-48{fill:#60bc5b;}.cls-49{fill:#bfb9ac;}.cls-50{fill:#605d57;}.cls-51{fill:#807b73;}.cls-52{fill:#b3b3b3;}.cls-53{fill:#e6e6e6;}.cls-54{fill:#a1753e;}.cls-55{fill:#bf7e43;}.cls-56{fill:#3d3d3d;}.cls-57{fill:#e2e2e2;}.cls-58{fill:#afafaf;}.cls-59{fill:#fbd800;}.cls-60{fill:#e9ca05;}.cls-61{fill:#ee3f35;}.cls-62{fill:#59b055;}.cls-63{fill:#527bd6;}.cls-64{fill:#de3a31;}.cls-65{fill:#3e5ca1;}.cls-66{fill:#f33;}.cls-67,.cls-68,.cls-69{stroke:#fff;}.cls-69{fill:#323232;}.cls-70{fill:#5c5c5c;}.cls-71{fill:#fff3cd;}.cls-72{fill:#e99c3f;}.cls-73{fill:#ffedae;}.cls-74{fill:#c1272d;}.cls-75{fill:#ed1c24;}.cls-76{fill:#f69799;}.cls-77{fill:#f2c48c;}.cls-78{fill:#edb065;}.cls-79{fill:#e6c497;}.cls-80{fill:#d69c52;}.cls-81{fill:#ccc;}.cls-82{fill:#452c0d;}.cls-83{fill:#b5ab9e;}.cls-84{fill:#fff7e8;}
		</style>
	</defs>
	<g id="things">
		<g id="desksh">
			<polygon class="cls-3" id="shadow3" points="250.07 467.52 210.51 444.3 311.41 386.54 350.58 410.42 250.07 467.52"/>
			<polygon class="cls-3" id="shadow1" points="248.44 474.49 255.09 470.82 206.31 442.68 199.57 446.35 248.44 474.49"/>
			<polygon class="cls-3" id="shadow2" points="353.48 414.25 360.13 410.58 311.35 382.44 304.6 386.1 353.48 414.25"/>
		</g>
		<g id="desk">
			<polygon class="cls-7" points="244.6 418.9 244.38 419.03 245.15 412.08 369.57 340.23 368.44 346.98 356.2 354.08 349.58 357.93 347.91 358.9 314.05 378.56 306.96 382.68 304.64 384.02 251.22 415.05 244.6 418.9"/>
			<polygon class="cls-8" points="369.57 340.23 245.15 412.08 192.49 381.79 317.06 309.91 369.57 340.23"/>
			<polygon class="cls-9" points="356.2 354.08 360.13 409.03 353.48 412.71 349.58 357.93 356.2 354.08"/>
			<polygon class="cls-10" points="349.58 357.93 353.48 412.71 304.6 384.56 304.64 384.02 306.96 382.68 306.91 383.4 350.86 409.2 350.38 401.09 347.91 358.9 349.58 357.93"/>
			<polygon class="cls-11" points="350.38 401.09 350.86 409.2 306.91 383.4 313.98 379.47 350.38 401.09"/>
			<polygon class="cls-9" points="314.05 378.56 313.98 379.47 306.91 383.4 306.96 382.68 314.05 378.56"/>
			<polygon class="cls-9" points="251.22 415.05 255.09 469.27 248.44 472.95 244.6 418.9 251.22 415.05"/>
			<polygon class="cls-10" points="244.6 418.9 248.44 472.95 199.56 444.8 203.71 395.18 205.32 396.12 201.87 443.64 245.82 469.44 245.34 461.33 242.81 418.11 244.38 419.03 244.6 418.9"/>
			<polygon class="cls-11" points="245.34 461.33 245.82 469.44 201.87 443.64 208.95 439.71 245.34 461.33"/>
			<polygon class="cls-12" points="242.81 418.11 211.8 399.92 205.32 396.12 203.71 395.18 192.49 388.59 192.49 381.79 245.15 412.08 244.38 419.03 242.81 418.11"/>
			<polygon class="cls-9" points="211.8 399.92 208.95 439.71 201.87 443.64 205.32 396.12 211.8 399.92"/>
		</g>
		<polygon class="cls-3" id="macsh" points="259.08 348.71 290.84 367.05 316.25 352.93 284.48 334.22 259.08 348.71"/>
		<g id="mac">
			<path class="cls-13" d="M315.2,334.43v.17a.71.71,0,0,1-.28.55l-10.45,6c-.15.09-.29,0-.29-.22v-.16a.69.69,0,0,1,.29-.55l10.45-6C315.07,334.13,315.2,334.23,315.2,334.43Z"/>
			<polygon class="cls-14" points="314.63 303.26 289.47 317.79 261.74 305.69 286.9 291.16 314.63 303.26"/>
			<polygon class="cls-15" points="312.05 346.55 312.05 349.11 286.9 363.77 286.9 355.66 291.22 358.31 312.05 346.55"/>
			<path class="cls-16" d="M309.21,310.07c2.51-1.4,3.5,15.34,1.5,18.89-2.5,4.42-10.81,9.16-17.15,9.94l-.71-16.51a5.09,5.09,0,0,1,2.31-4.21l14-8.09Z"/>
			<polygon class="cls-9" points="296.8 348.29 296.96 352.06 293.56 353.98 293.39 350.21 296.8 348.29"/>
<!--			insert image here for it to render on corgi's monitor-->
			<image href="../demo.gif" style="transform: translate(293px, 320px) scale(0.04, 0.08) skew(3deg, -17deg)"/>
<!--			<text class="cls-18" transform="matrix(0.84, -0.54, 0.04, 1, 296.82, 330.09)">woof.</text>-->
			<path class="cls-9" d="M312.85,327.75a5,5,0,0,1-2.27,4.2l-14.47,8.34a1.56,1.56,0,0,1-2.55-1.4c6.33-.78,14.65-5.52,17.15-9.94,2-3.54,1-20.29-1.5-18.89l.12-.07a1.59,1.59,0,0,1,2.58,1.39Z"/>
			<path class="cls-11" d="M314.63,303.26l2.31,40.53-4.88,2.76-20.84,11.76-1.75-40.52Zm.57,31.35v-.17c0-.21-.13-.31-.28-.21l-10.45,6a.69.69,0,0,0-.29.55V341c0,.21.14.32.29.22l10.45-6A.71.71,0,0,0,315.2,334.61ZM310.59,332a5,5,0,0,0,2.27-4.2l-.94-16.36a1.59,1.59,0,0,0-2.58-1.39l-.12.07h0l-14,8.09a5.09,5.09,0,0,0-2.31,4.21l.71,16.51a1.56,1.56,0,0,0,2.55,1.4ZM297,352.06l-.16-3.77-3.41,1.92.17,3.77Z"/>
			<path class="cls-9" d="M289.47,317.79l1.75,40.52-4.32-2.64v8.11l-27.82-16.06V308.9l2.66-3.22Zm-6.79,39.95c.14,0,.23-.12.23-.33a.92.92,0,0,0-.38-.73L263,345.41a.26.26,0,0,0-.15,0c-.14,0-.23.12-.23.33a.9.9,0,0,0,.39.73l19.52,11.27A.26.26,0,0,0,282.68,357.73Zm0-4c.14,0,.24-.11.24-.31a1,1,0,0,0-.44-.76L263.06,341.5a.37.37,0,0,0-.2-.06c-.14,0-.24.12-.24.32a1,1,0,0,0,.44.76l19.41,11.2A.37.37,0,0,0,282.67,353.77Zm0,2c.14,0,.24-.11.24-.31a1,1,0,0,0-.44-.76l-19.41-11.21a.37.37,0,0,0-.2-.06c-.14,0-.24.11-.24.31a1,1,0,0,0,.44.76l19.41,11.2A.37.37,0,0,0,282.67,355.74Z"/>
			<path class="cls-17" d="M282.91,357.41c0,.21-.09.33-.23.33a.26.26,0,0,1-.15,0L263,346.42a.9.9,0,0,1-.39-.73c0-.21.09-.33.23-.33a.26.26,0,0,1,.15,0l19.52,11.27A.92.92,0,0,1,282.91,357.41Z"/>
			<path class="cls-17" d="M282.91,353.46c0,.2-.1.31-.24.31a.37.37,0,0,1-.2-.06l-19.41-11.2a1,1,0,0,1-.44-.76c0-.2.1-.32.24-.32a.37.37,0,0,1,.2.06l19.41,11.21A1,1,0,0,1,282.91,353.46Z"/>
			<path class="cls-17" d="M282.91,355.43c0,.2-.1.31-.24.31a.37.37,0,0,1-.2-.06l-19.41-11.2a1,1,0,0,1-.44-.76c0-.2.1-.31.24-.31a.37.37,0,0,1,.2.06l19.41,11.21A1,1,0,0,1,282.91,355.43Z"/>
		</g>
		<g id="mouse">
			<polygon class="cls-3" points="311.35 358.25 322.08 364.45 329.24 360.32 318.5 354.12 311.35 358.25"/>
			<polygon class="cls-19" points="329.24 356.6 329.24 359.46 322.09 363.59 322.09 360.54 329.24 356.6"/>
			<path class="cls-15" d="M329.24,356.6l-7.16,3.94-10.74-7.21,7.17-4.1Zm-6.65-3.4v-.94l-3.47-2.1-4.83,2.75v.62l3.58,2.59Z"/>
			<polygon class="cls-20" points="322.59 352.26 322.59 353.2 317.87 356.12 317.87 355.04 322.59 352.26"/>
			<polygon class="cls-21" points="322.59 352.26 317.87 355.04 317.87 356.12 314.29 353.53 314.29 352.91 317.88 355.02 322.59 352.26"/>
			<polygon class="cls-9" points="322.59 352.26 317.88 355.02 314.29 352.91 319.13 350.15 322.59 352.26"/>
			<polygon class="cls-22" points="322.09 360.54 322.09 363.59 311.34 357.4 311.34 353.33 322.09 360.54"/>
		</g>
		<polygon class="cls-3" id="kbsh" points="319.23 367.29 282.68 388.39 268.56 380.23 305.1 359.13 319.23 367.29"/>
		<g id="kb">
			<polygon class="cls-19" points="319.23 365.01 319.23 366.43 282.68 387.53 282.68 385.62 319.23 365.01"/>
			<polygon class="cls-15" points="319.23 365.01 282.68 385.62 268.56 374.78 305.27 354.69 319.23 365.01"/>
			<polygon class="cls-22" points="282.68 385.62 282.68 387.53 268.56 379.38 268.56 374.78 282.68 385.62"/>
		</g>
		<path class="cls-3" d="M382,441.05,358,455c-3.58,2.07-9.9,1.81-14-.58l-22.07-12.74c-4.14-2.39-4.59-6-1-8.1l24.08-13.9c3.58-2.07,9.9-1.81,14,.58L381,432.95C385.17,435.34,385.63,439,382,441.05Z" id="chairsh"/>
		<g id="chair">
			<g id="seat">
				<path class="cls-23" d="M383.4,436.77c.47.82.19,1.49-.63,1.49h-.63a3.08,3.08,0,0,1-2.34-1.49l-7.53-13,2.67-1.61Z"/>
				<path class="cls-24" d="M325.61,417.61l0,0a5.94,5.94,0,0,1-1.28-9.13l.1-.09s0,0,0-.05a5,5,0,0,1,1.35-1.1l20.94-12.09c2.46-1.42,6.39-1.58,9.71-.56l15.85,29.19-21.7,9.41L344,428.54l-.42-.24Z"/>
				<path class="cls-23" d="M354.17,433.15v21.58a1.59,1.59,0,0,1-1.59,1.59h-.41a1.6,1.6,0,0,1-1.6-1.59V433.15Z"/>
				<path class="cls-25" d="M332.23,424.14l-2.68-1.55-2.9-1.67a8.08,8.08,0,0,1-4.72-7.15,7.17,7.17,0,0,1,2.35-5.31,5.94,5.94,0,0,0,1.28,9.13l0,0,18,10.69.42.24,6.59,4.61-9.8-4.07Z"/>
				<path class="cls-23" d="M332.23,424.14,325,436.77a3.11,3.11,0,0,1-2.34,1.49H322c-.82,0-1.1-.67-.62-1.49l8.19-14.18Z"/>
			</g>
			<g id="corg">
				<g id="rightpaw">
					<path class="cls-26" d="M331.16,358.39l.09,1.53-6.72-.19a11.11,11.11,0,0,1-4.52-1.8l-.42-.87Z"/>
					<path class="cls-5" d="M330.73,351.14l.43,7.25-11.57-1.33c-2.8-5.88,0-4.15,4.69-4.93Z"/>
				</g>
				<g id="leftpaw">
					<path class="cls-26" d="M333.54,381.84l0,.22c-7.09.52-12.32-6-12.32-6s-7.44-3-11.22-3.62c-2.29-.38-2.9-.74-3.2-1.64.42-.74,9.85.4,14.06,2.55,1.73.89,3.28,3.53,5,4.66.61.4,3.73,2.4,4.33,2.83Z"/>
					<path class="cls-5" d="M317.74,366.3c9.62-2.57,11.19-.84,12.32-.16l2.31,8.64,1.17,7.06-3.3-1c-.6-.43-3.72-2.43-4.33-2.83-1.73-1.13-3.28-3.77-5-4.66-4.21-2.15-13.64-3.29-14.06-2.55-.21-.59-.29-1.43-.62-2.66C305.56,365.77,313.84,366,317.74,366.3Z"/>
				</g>
				<path class="cls-27" d="M370.23,375.79c2.19,9.59,3.55,19.22,2.49,26-.65,4.13-1.24,7.33-1.91,9.86,0,0,0,0,0,0-2,5.33-7.58,8.74-12.17,5.28a26.54,26.54,0,0,0-7.47-3.9c1.28-11.66.77-18.07,1.72-26.69C353.38,381.83,365.89,382.12,370.23,375.79Z"/>
				<path class="cls-27" d="M351.16,413a26.54,26.54,0,0,1,7.47,3.9c4.59,3.46,10.2.05,12.17-5.28-2.4,9.07-5.9,9.49-17.49,12.78-14.83,4.22-15.86-9.29-23.73-8.41l.27-1.62c2.42-.84,5.16-1.87,8.27-3.1A33.68,33.68,0,0,1,351.16,413Z"/>
				<path class="cls-28" d="M338.12,411.32c-3.11,1.23-5.85,2.26-8.27,3.1l-3.22-1.07a28.77,28.77,0,0,1,1.45-7.53c1.41-5.34,10.16-7,13.69-7.39-1.09-10.18-7.83-19.21-7.83-19.21a15.5,15.5,0,0,1-4.69-1.69,3.75,3.75,0,0,1-.6-.55c-2.08-2.21-4.48-7.85-4.48-7.85s11.69-2.53,11.69-2.91c-.06-3.75,2.55-9,2.55-9,2.43,3,7.82,3.62,7.82,3.62,7.8-6.85,9.33-19.51,9.33-19.51s2.56,1.8,4.42,1a284,284,0,0,1,10.25,33.55c-4.34,6.33-16.85,6-17.35,10.57-1,8.62-.44,15-1.72,26.69A33.68,33.68,0,0,0,338.12,411.32Z"/>
				<path class="cls-5" d="M325.37,340.82a14.82,14.82,0,0,1-8.71-1.34c6,1.32,4.72,0,4.72,0-4.17-1.38-2.56-.41-4.92-.62a4.72,4.72,0,0,1-1.57-.59h0a20.63,20.63,0,0,1-5.74-4.66,3.81,3.81,0,0,0,1.26-1.36,4.32,4.32,0,0,0,.28-1.18c.05-.33.09-.65.14-1a2.19,2.19,0,0,1,.16-.67,3.88,3.88,0,0,1,.92-1.26l0,0a15.91,15.91,0,0,0,3.49-2.11,3.94,3.94,0,0,0,1,4.59c3.08,2.27,4.68,3.59,9.48,5a10.36,10.36,0,0,1,2.25,1,23.12,23.12,0,0,1,6.39,6.49c7.39-9.21,4.56-14.75,4.56-14.75l1-.47a6,6,0,0,1,2.64-.6H344c-1.25-6.53-11.2-11.71-11.82-12a64.12,64.12,0,0,1,12.62,7c12.65,9,16.1,19.2,16.1,19.2a2.36,2.36,0,0,1-.74.65.66.66,0,0,1-.19.09c-1.86.84-4.42-1-4.42-1s-1.53,12.66-9.33,19.51c0,0-5.39-.61-7.82-3.62,0,0-2.61,5.3-2.55,9,0,.38-11.69,2.91-11.69,2.91l-3.58-2.63c5.07-5,3.87.58,2.8-6.18-.7-7.74,2.64-12.3,4.2-14a2.23,2.23,0,0,0,.51-2.07C327.46,341.78,326.14,341,325.37,340.82Z"/>
				<path class="cls-27" d="M339.77,311.66c2.71,3.9,5,10.64,5,10.64a64.12,64.12,0,0,0-12.62-7c.62.31,10.57,5.49,11.82,12h-1.3a6,6,0,0,0-2.64.6l-1,.47s2.83,5.54-4.56,14.75a23.12,23.12,0,0,0-6.39-6.49l2.18-.19s4.27-6,1-12.74a35.13,35.13,0,0,0-6.44-9.12l1.79-.83a10.57,10.57,0,0,1,3.17-2.41,81.3,81.3,0,0,0,4.37-11.53c1.48-5.45,3-3.51,3-3.51s.53,6.32,1.33,11.08a42.64,42.64,0,0,0,1.12,4.22Z"/>
				<path class="cls-5" d="M323.88,411.26a2.11,2.11,0,0,0,1-.9c1.19-2.39-.69-5.29.94-7.42s2-2.15,10.06-8a66.23,66.23,0,0,0-8.41-17.05l1.2-.92a3.75,3.75,0,0,0,.6.55,15.5,15.5,0,0,0,4.69,1.69s6.74,9,7.83,19.21c-3.53.43-12.28,2-13.69,7.39a28.77,28.77,0,0,0-1.45,7.53l3.22,1.07c-15.74,5.49-17.9,3.46-17.9,3.46a10.06,10.06,0,0,1-.82-1.38C309.92,414.1,316.54,412.4,323.88,411.26Z"/>
				<path class="cls-29" d="M337.31,296.35s-1.55-1.94-3,3.51a81.3,81.3,0,0,1-4.37,11.53l.21-1.3a43.23,43.23,0,0,1,2-7.91l.73-2.07a4.18,4.18,0,0,1,.58-2C336.36,294.15,337.14,295.16,337.31,296.35Z"/>
				<path class="cls-27" d="M324.95,314.63a35.13,35.13,0,0,1,6.44,9.12c3.23,6.73-1,12.74-1,12.74l-6.17-6.94c-1.57-1.77-2.13-6.62-2.13-6.62-4.69-6.82-2.59-11.51-2.59-11.51C320.68,311.13,322.76,312.44,324.95,314.63Z"/>
				<path class="cls-29" d="M316,323.16a11.87,11.87,0,0,1,3-4.13c-.76-2.22-1.84-7.08.41-7.61,0,0-2.1,4.69,2.59,11.51,0,0,.56,4.85,2.13,6.62l6.17,6.94-2.18.19a10.36,10.36,0,0,0-2.25-1c-4.8-1.45-6.4-2.77-9.48-5a3.94,3.94,0,0,1-1-4.59.78.78,0,0,0,.24-.58,14.6,14.6,0,0,1,.18-1.88.69.69,0,0,1,.11-.29Z"/>
				<path class="cls-26" d="M329.85,414.42l-.27,1.62c-12.34,3.43-15.29,5.14-17.63,1.84C311.95,417.88,314.11,419.91,329.85,414.42Z"/>
				<path class="cls-30" d="M321.38,339.48s1.28,1.32-4.72,0c-1.05-.47-1.61-.78-1.77-1.21a4.72,4.72,0,0,0,1.57.59C318.82,339.07,317.21,338.1,321.38,339.48Z"/>
				<path class="cls-30" d="M316,323.16l-.06.11Z"/>
				<path class="cls-31" d="M311.9,328.15a3.88,3.88,0,0,0-.92,1.26,2.19,2.19,0,0,0-.16.67c-.05.33-.09.65-.14,1a4.32,4.32,0,0,1-.28,1.18,3.81,3.81,0,0,1-1.26,1.36c-1.39-1.75-1.85-3.46.14-4.29C310.3,328.88,311.17,328.49,311.9,328.15Z"/>
				<path class="cls-3" d="M321.13,328a5.13,5.13,0,0,0-.72-.48,6.4,6.4,0,0,0-1.74-.69,5.37,5.37,0,0,0-1-.16,6.4,6.4,0,0,0-.88,0,6.13,6.13,0,0,0-.63.05l-.24,0,.23-.07a3.49,3.49,0,0,1,.62-.15,4.83,4.83,0,0,1,1.94.06,5,5,0,0,1,1.76.82A3.66,3.66,0,0,1,321.13,328Z"/>
			</g>
			<g id="back">
				<path class="cls-25" d="M382.45,410a23.78,23.78,0,0,1,.59,3.48,8.37,8.37,0,0,1-4.05,6.93L358,432.5c-3.11,1.8-8.61,1.57-12.21-.51l-5.06-2.91h5.67a5.93,5.93,0,0,0,5.86-5l4.93-35.74a7.16,7.16,0,0,1,3.1-4.61l12.84-7.41a2,2,0,0,1,3.24,1.5Z"/>
			</g>
		</g>
		<polygon class="cls-3" id="toastersh" points="207.41 381.44 239.94 400.24 254.84 391.41 222.95 372.47 207.41 381.44"/>
		<g id="toaster">
			<g id="stopgap">
				<polygon class="cls-11" points="255.16 364.72 255.16 389.11 240.21 397.92 240.21 373.56 240.22 373.56 255.16 364.72"/>
				<polygon class="cls-14" points="245.83 353.27 255.16 364.72 240.22 373.56 240.21 373.56 240.21 353.27 245.83 353.27"/>
			</g>
			<g id="backtoaster">
				<path class="cls-11" d="M255.16,364.72v24.39L246.83,394V369.65Zm-4.93,24.39V370.85l-1.31.76v18.26Z"/>
				<path class="cls-14" d="M225.3,340c1.35-.84,3.13-.8,5.08.33l17.21,9.94c4.19,2.41,7.57,8.9,7.57,14.48l-8.33,4.93V354.5a.83.83,0,0,0-.41-.61l-20.49-11.83a2.07,2.07,0,0,0-1-.23,2.79,2.79,0,0,0-1.35.33,1.14,1.14,0,0,0-.55.62h0l-2.49,0Z"/>
				<polygon class="cls-3" points="250.23 370.85 250.23 389.11 248.92 389.87 248.92 371.61 250.23 370.85"/>
				<polygon class="cls-11" points="246.83 369.65 246.83 394.02 236.93 374.77 246.83 369.65"/>
				<polygon class="cls-14" points="246.46 356.27 246.83 354.5 246.83 369.65 236.93 374.77 228.41 358.18 246.46 356.27"/>
				<path class="cls-13" d="M223,342.78a1.14,1.14,0,0,1,.55-.62,2.79,2.79,0,0,1,1.35-.33,2.07,2.07,0,0,1,1,.23l20.49,11.83a.83.83,0,0,1,.41.61l-.37,1.77-18,1.91-7.24-14.1,1.83-1.3Z"/>
				<polygon class="cls-14" points="223 342.78 221.16 344.08 220.5 342.8 223 342.78"/>
			</g>
			<g id="codeb">
				<path class="cls-3" d="M243.35,378.18l-1.11.33A1.56,1.56,0,0,0,243,377V358.22a4.48,4.48,0,0,0-1.86-3.56l-12.29-7.09a1.34,1.34,0,0,0-.95-.2l1.18-.36h0a1.3,1.3,0,0,1,1,.18l12.29,7.09a4.48,4.48,0,0,1,1.86,3.56v18.73c0,.89-.35,1.47-.88,1.6Z"/>
				<path class="cls-16" d="M242.23,378.52a1.25,1.25,0,0,1-1.11-.15l-12.29-7.09a4.48,4.48,0,0,1-1.86-3.56V349c0-.91.37-1.49.92-1.61a1.34,1.34,0,0,1,.95.2l12.29,7.09a4.48,4.48,0,0,1,1.86,3.56V377A1.56,1.56,0,0,1,242.23,378.52Zm-.67-4.52a.85.85,0,0,0-.36-.68l-3.62-2.09a.22.22,0,0,0-.25,0,.33.33,0,0,0-.1.27.85.85,0,0,0,.35.68l3.62,2.09a.22.22,0,0,0,.25,0A.33.33,0,0,0,241.56,374Zm0,1.9a.85.85,0,0,0-.36-.68l-4.82-2.78a.22.22,0,0,0-.25,0,.33.33,0,0,0-.1.27.85.85,0,0,0,.35.68l4.82,2.78a.22.22,0,0,0,.25,0A.33.33,0,0,0,241.56,375.89Zm-.22-11.21v0a.87.87,0,0,0-.39-.68l-4.52-2.61c-.22-.13-.39,0-.39.23v0a.87.87,0,0,0,.39.68l4.52,2.61C241.16,365,241.34,364.93,241.34,364.68Zm0-5.63a.85.85,0,0,0-.36-.68l-1-.56a.22.22,0,0,0-.25,0,.33.33,0,0,0-.1.27.85.85,0,0,0,.35.68l1,.56a.22.22,0,0,0,.25,0A.33.33,0,0,0,241.34,359.05Zm-.37,3.44a.91.91,0,0,0-.41-.71L238,360.33a.25.25,0,0,0-.41.24.91.91,0,0,0,.41.71l2.52,1.46a.25.25,0,0,0,.41-.24Zm-.71,5.28a.85.85,0,0,0-.35-.68l-.47-.27a.22.22,0,0,0-.25,0,.33.33,0,0,0-.1.27.85.85,0,0,0,.36.68l.47.27a.22.22,0,0,0,.25,0A.33.33,0,0,0,240.26,367.78Zm-1,1.17a.85.85,0,0,0-.35-.68l-3.78-2.18a.22.22,0,0,0-.25,0,.33.33,0,0,0-.1.27.85.85,0,0,0,.35.68l3.78,2.18a.22.22,0,0,0,.25,0A.33.33,0,0,0,239.3,368.94ZM239,357.72a.85.85,0,0,0-.35-.68l-7.18-4.14a.22.22,0,0,0-.25,0,.33.33,0,0,0-.1.27.85.85,0,0,0,.36.68l7.18,4.14a.22.22,0,0,0,.25,0A.33.33,0,0,0,239,357.72Zm-.62-2.42a.85.85,0,0,0-.36-.68l-4.83-2.79a.22.22,0,0,0-.25,0,.33.33,0,0,0-.1.27.85.85,0,0,0,.35.68l4.83,2.79a.22.22,0,0,0,.25,0A.33.33,0,0,0,238.42,355.3Zm-.09,11.35A.85.85,0,0,0,238,366l-1.29-.75a.22.22,0,0,0-.25,0,.33.33,0,0,0-.1.27.85.85,0,0,0,.35.68l1.29.75a.22.22,0,0,0,.25,0A.33.33,0,0,0,238.32,366.66ZM237,360.29a.85.85,0,0,0-.36-.68L229,355.17a.22.22,0,0,0-.25,0,.33.33,0,0,0-.1.27.85.85,0,0,0,.35.68l7.69,4.44a.22.22,0,0,0,.25,0A.33.33,0,0,0,237,360.29Zm-.09,11a.85.85,0,0,0-.36-.68l-7.69-4.44a.22.22,0,0,0-.25,0,.33.33,0,0,0-.1.27.85.85,0,0,0,.35.68l7.69,4.44a.22.22,0,0,0,.25,0A.33.33,0,0,0,237,371.34Zm-.16-1.91a.85.85,0,0,0-.36-.68l-3.62-2.09a.22.22,0,0,0-.25,0,.33.33,0,0,0-.1.27.85.85,0,0,0,.35.68l3.62,2.09a.22.22,0,0,0,.25,0A.33.33,0,0,0,236.8,369.42Zm-.95-4.2a.85.85,0,0,0-.35-.68L232.86,363a.22.22,0,0,0-.25,0,.33.33,0,0,0-.1.27.85.85,0,0,0,.36.68l2.63,1.52a.22.22,0,0,0,.25,0A.33.33,0,0,0,235.85,365.23Zm-.47-4a.85.85,0,0,0-.36-.68l-1-.56a.22.22,0,0,0-.25,0,.33.33,0,0,0-.1.27.85.85,0,0,0,.35.68l1,.56a.22.22,0,0,0,.25,0A.33.33,0,0,0,235.38,361.22Zm-.09,11a.85.85,0,0,0-.36-.68l-1-.56a.22.22,0,0,0-.25,0,.33.33,0,0,0-.1.27.85.85,0,0,0,.35.68l1,.56a.22.22,0,0,0,.25,0A.33.33,0,0,0,235.29,372.27Zm-1-6.22a.85.85,0,0,0-.35-.68l-5-2.91a.22.22,0,0,0-.25,0,.33.33,0,0,0-.1.27.85.85,0,0,0,.36.68l5,2.91a.22.22,0,0,0,.25,0A.33.33,0,0,0,234.29,366Zm-.11-3.55a.85.85,0,0,0-.35-.68L229,359a.22.22,0,0,0-.25,0,.33.33,0,0,0-.1.27.85.85,0,0,0,.35.68l4.82,2.78a.22.22,0,0,0,.25,0A.33.33,0,0,0,234.18,362.5Zm-1.2-2.66a.85.85,0,0,0-.36-.68L229,357.07a.22.22,0,0,0-.25,0,.33.33,0,0,0-.1.27.85.85,0,0,0,.35.68l3.62,2.09a.22.22,0,0,0,.25,0A.33.33,0,0,0,233,359.84Zm-.09,11a.85.85,0,0,0-.36-.68l-3.62-2.09a.22.22,0,0,0-.25,0,.33.33,0,0,0-.1.27.85.85,0,0,0,.35.68l3.62,2.09a.22.22,0,0,0,.25,0A.33.33,0,0,0,232.88,370.88Zm-.56-19.1a.85.85,0,0,0-.35-.68l-3-1.71a.22.22,0,0,0-.25,0,.33.33,0,0,0-.1.27.85.85,0,0,0,.35.68l3,1.71a.22.22,0,0,0,.25,0A.33.33,0,0,0,232.32,351.78Zm-.33,3.76a.85.85,0,0,0-.36-.68L229,353.34a.22.22,0,0,0-.25,0,.33.33,0,0,0-.1.27.85.85,0,0,0,.35.68l2.63,1.52a.22.22,0,0,0,.25,0A.33.33,0,0,0,232,355.54Zm0,7.46a.85.85,0,0,0-.36-.68L229,360.8a.22.22,0,0,0-.25,0,.33.33,0,0,0-.1.27.85.85,0,0,0,.35.68l2.63,1.52a.22.22,0,0,0,.25,0A.33.33,0,0,0,232,363Zm-.09,3.58a.85.85,0,0,0-.36-.68l-2.63-1.52a.22.22,0,0,0-.25,0,.33.33,0,0,0-.1.27.85.85,0,0,0,.35.68l2.63,1.52a.22.22,0,0,0,.25,0A.33.33,0,0,0,231.9,366.58Zm-1.58-13.89A.85.85,0,0,0,230,352l-1-.56a.22.22,0,0,0-.25,0,.33.33,0,0,0-.1.27.85.85,0,0,0,.35.68l1,.56a.22.22,0,0,0,.25,0A.33.33,0,0,0,230.32,352.69Z"/>
				<path class="cls-39" d="M241.21,373.32a.85.85,0,0,1,.36.68.33.33,0,0,1-.1.27.22.22,0,0,1-.25,0l-3.62-2.09a.85.85,0,0,1-.35-.68.33.33,0,0,1,.1-.27.22.22,0,0,1,.25,0Z"/>
				<path class="cls-40" d="M241.21,375.21a.85.85,0,0,1,.36.68.33.33,0,0,1-.1.27.22.22,0,0,1-.25,0l-4.82-2.78a.85.85,0,0,1-.35-.68.33.33,0,0,1,.1-.27.22.22,0,0,1,.25,0Z"/>
				<path class="cls-39" d="M241.34,364.65v0c0,.25-.18.35-.39.23l-4.52-2.61a.87.87,0,0,1-.39-.68v0c0-.25.18-.35.39-.23l4.52,2.61A.87.87,0,0,1,241.34,364.65Z"/>
				<path class="cls-40" d="M241,358.37a.85.85,0,0,1,.36.68.33.33,0,0,1-.1.27.22.22,0,0,1-.25,0l-1-.56a.85.85,0,0,1-.35-.68.33.33,0,0,1,.1-.27.22.22,0,0,1,.25,0Z"/>
				<path class="cls-41" d="M240.56,361.78a.91.91,0,0,1,.41.71.25.25,0,0,1-.41.24L238,361.27a.91.91,0,0,1-.41-.71.25.25,0,0,1,.41-.24Z"/>
				<path class="cls-42" d="M239.91,367.1a.85.85,0,0,1,.35.68.33.33,0,0,1-.1.27.22.22,0,0,1-.25,0l-.47-.27a.85.85,0,0,1-.36-.68.33.33,0,0,1,.1-.27.22.22,0,0,1,.25,0Z"/>
				<path class="cls-40" d="M238.94,368.26a.85.85,0,0,1,.35.68.33.33,0,0,1-.1.27.22.22,0,0,1-.25,0L235.17,367a.85.85,0,0,1-.35-.68.33.33,0,0,1,.1-.27.22.22,0,0,1,.25,0Z"/>
				<path class="cls-39" d="M238.68,357a.85.85,0,0,1,.35.68.33.33,0,0,1-.1.27.22.22,0,0,1-.25,0l-7.18-4.14a.85.85,0,0,1-.36-.68.33.33,0,0,1,.1-.27.22.22,0,0,1,.25,0Z"/>
				<path class="cls-42" d="M238.06,354.63a.85.85,0,0,1,.36.68.33.33,0,0,1-.1.27.22.22,0,0,1-.25,0l-4.83-2.79a.85.85,0,0,1-.35-.68.33.33,0,0,1,.1-.27.22.22,0,0,1,.25,0Z"/>
				<path class="cls-41" d="M238,366a.85.85,0,0,1,.36.68.33.33,0,0,1-.1.27.22.22,0,0,1-.25,0l-1.29-.75a.85.85,0,0,1-.35-.68.33.33,0,0,1,.1-.27.22.22,0,0,1,.25,0Z"/>
				<path class="cls-42" d="M236.69,359.61a.85.85,0,0,1,.36.68.33.33,0,0,1-.1.27.22.22,0,0,1-.25,0L229,356.12a.85.85,0,0,1-.35-.68.33.33,0,0,1,.1-.27.22.22,0,0,1,.25,0Z"/>
				<path class="cls-43" d="M236.6,370.66a.85.85,0,0,1,.36.68.33.33,0,0,1-.1.27.22.22,0,0,1-.25,0l-7.69-4.44a.85.85,0,0,1-.35-.68.33.33,0,0,1,.1-.27.22.22,0,0,1,.25,0Z"/>
				<path class="cls-44" d="M236.44,368.75a.85.85,0,0,1,.36.68.33.33,0,0,1-.1.27.22.22,0,0,1-.25,0l-3.62-2.09a.85.85,0,0,1-.35-.68.33.33,0,0,1,.1-.27.22.22,0,0,1,.25,0Z"/>
				<path class="cls-39" d="M235.49,364.55a.85.85,0,0,1,.35.68.33.33,0,0,1-.1.27.22.22,0,0,1-.25,0L232.86,364a.85.85,0,0,1-.36-.68.33.33,0,0,1,.1-.27.22.22,0,0,1,.25,0Z"/>
				<path class="cls-43" d="M235,360.54a.85.85,0,0,1,.36.68.33.33,0,0,1-.1.27.22.22,0,0,1-.25,0l-1-.56a.85.85,0,0,1-.35-.68.33.33,0,0,1,.1-.27.22.22,0,0,1,.25,0Z"/>
				<path class="cls-44" d="M234.93,371.59a.85.85,0,0,1,.36.68.33.33,0,0,1-.1.27.22.22,0,0,1-.25,0l-1-.56a.85.85,0,0,1-.35-.68.33.33,0,0,1,.1-.27.22.22,0,0,1,.25,0Z"/>
				<path class="cls-39" d="M233.93,365.37a.85.85,0,0,1,.35.68.33.33,0,0,1-.1.27.22.22,0,0,1-.25,0l-5-2.91a.85.85,0,0,1-.36-.68.33.33,0,0,1,.1-.27.22.22,0,0,1,.25,0Z"/>
				<path class="cls-41" d="M233.82,361.82a.85.85,0,0,1,.35.68.33.33,0,0,1-.1.27.22.22,0,0,1-.25,0L229,360a.85.85,0,0,1-.35-.68.33.33,0,0,1,.1-.27.22.22,0,0,1,.25,0Z"/>
				<path class="cls-40" d="M232.62,359.16a.85.85,0,0,1,.36.68.33.33,0,0,1-.1.27.22.22,0,0,1-.25,0L229,358a.85.85,0,0,1-.35-.68.33.33,0,0,1,.1-.27.22.22,0,0,1,.25,0Z"/>
				<path class="cls-42" d="M232.53,370.2a.85.85,0,0,1,.36.68.33.33,0,0,1-.1.27.22.22,0,0,1-.25,0l-3.62-2.09a.85.85,0,0,1-.35-.68.33.33,0,0,1,.1-.27.22.22,0,0,1,.25,0Z"/>
				<path class="cls-43" d="M232,351.1a.85.85,0,0,1,.35.68.33.33,0,0,1-.1.27.22.22,0,0,1-.25,0l-3-1.71a.85.85,0,0,1-.35-.68.33.33,0,0,1,.1-.27.22.22,0,0,1,.25,0Z"/>
				<path class="cls-41" d="M231.64,354.86a.85.85,0,0,1,.36.68.33.33,0,0,1-.1.27.22.22,0,0,1-.25,0L229,354.28a.85.85,0,0,1-.35-.68.33.33,0,0,1,.1-.27.22.22,0,0,1,.25,0Z"/>
				<path class="cls-44" d="M231.64,362.32a.85.85,0,0,1,.36.68.33.33,0,0,1-.1.27.22.22,0,0,1-.25,0L229,361.75a.85.85,0,0,1-.35-.68.33.33,0,0,1,.1-.27.22.22,0,0,1,.25,0Z"/>
				<path class="cls-41" d="M231.55,365.91a.85.85,0,0,1,.36.68.33.33,0,0,1-.1.27.22.22,0,0,1-.25,0l-2.63-1.52a.85.85,0,0,1-.35-.68.33.33,0,0,1,.1-.27.22.22,0,0,1,.25,0Z"/>
				<path class="cls-44" d="M230,352a.85.85,0,0,1,.35.68.33.33,0,0,1-.1.27.22.22,0,0,1-.25,0l-1-.56a.85.85,0,0,1-.35-.68.33.33,0,0,1,.1-.27.22.22,0,0,1,.25,0Z"/>
			</g>
			<g id="midtoaster">
				<polygon class="cls-3" points="246.83 372.84 246.83 391.1 245.52 391.86 245.52 373.59 246.83 372.84"/>
				<polygon class="cls-11" points="246.83 391.1 246.83 394.02 241.64 397.09 241.63 372.72 241.64 372.72 246.83 369.65 246.83 372.84 245.52 373.59 245.52 391.86 246.83 391.1"/>
				<path class="cls-14" d="M246.83,354.5v15.15l-5.19,3.07h0V357.61a.69.69,0,0,0-.4-.71l-20.49-11.83a2.07,2.07,0,0,0-1-.23,2.79,2.79,0,0,0-1.35.33,1,1,0,0,0-.58.82h-2.7l5.42-3.19H223a.68.68,0,0,0,.39.73l20.49,11.83a2.12,2.12,0,0,0,1,.24,2.76,2.76,0,0,0,1.34-.33A1.17,1.17,0,0,0,246.83,354.5Z"/>
				<polygon class="cls-11" points="241.63 372.72 241.64 397.09 231.48 377.54 241.63 372.72"/>
				<path class="cls-13" d="M241.23,356.9a.69.69,0,0,1,.4.71l-10.15,19.92L215.8,347.35l2-1.37a1,1,0,0,1,.58-.82,2.79,2.79,0,0,1,1.35-.33,2.07,2.07,0,0,1,1,.23Z"/>
				<polygon class="cls-14" points="241.63 357.62 241.63 372.72 231.48 377.54 241.63 357.62"/>
				<polygon class="cls-14" points="217.79 345.99 215.8 347.35 215.09 345.99 217.79 345.99"/>
			</g>
			<g id="codea">
				<path class="cls-3" d="M222.48,350.52h0a1.3,1.3,0,0,1,1,.18l12.29,7.09a4.48,4.48,0,0,1,1.86,3.56V380.1c0,.89-.35,1.47-.88,1.6h0l-1.11.33a1.56,1.56,0,0,0,.76-1.56V361.74a4.48,4.48,0,0,0-1.86-3.56l-12.29-7.09a1.34,1.34,0,0,0-.95-.2Z"/>
				<path class="cls-16" d="M221.3,350.88a1.34,1.34,0,0,1,.95.2l12.29,7.09a4.48,4.48,0,0,1,1.86,3.56v18.73a1.56,1.56,0,0,1-.76,1.56,1.25,1.25,0,0,1-1.11-.15l-12.29-7.09a4.48,4.48,0,0,1-1.86-3.56V352.49C220.38,351.58,220.75,351,221.3,350.88ZM235,377.51a.85.85,0,0,0-.35-.68L231,374.75a.22.22,0,0,0-.25,0,.33.33,0,0,0-.1.27.85.85,0,0,0,.36.68l3.62,2.09a.22.22,0,0,0,.25,0A.33.33,0,0,0,235,377.51Zm0,1.9a.85.85,0,0,0-.35-.68l-4.82-2.78a.22.22,0,0,0-.25,0,.33.33,0,0,0-.1.27.85.85,0,0,0,.35.68l4.82,2.78a.22.22,0,0,0,.25,0A.33.33,0,0,0,235,379.41Zm-.22-11.21v0a.87.87,0,0,0-.39-.68l-4.52-2.61c-.22-.12-.39,0-.39.23v0a.87.87,0,0,0,.39.68l4.52,2.61C234.57,368.55,234.75,368.45,234.75,368.2Zm0-5.63a.85.85,0,0,0-.35-.68l-1-.56a.22.22,0,0,0-.25,0,.33.33,0,0,0-.1.27.85.85,0,0,0,.36.68l1,.56a.22.22,0,0,0,.25,0A.33.33,0,0,0,234.75,362.57Zm-.37,3.44a.91.91,0,0,0-.41-.71l-2.52-1.46a.25.25,0,0,0-.41.24.91.91,0,0,0,.41.71l2.52,1.46a.25.25,0,0,0,.41-.24Zm-.71,5.28a.85.85,0,0,0-.35-.68l-.47-.27a.22.22,0,0,0-.25,0,.33.33,0,0,0-.1.27.85.85,0,0,0,.35.68l.47.27a.22.22,0,0,0,.25,0A.33.33,0,0,0,233.67,371.29Zm-1,1.17a.85.85,0,0,0-.35-.68l-3.77-2.18a.22.22,0,0,0-.25,0,.33.33,0,0,0-.1.27.85.85,0,0,0,.36.68l3.77,2.18a.22.22,0,0,0,.25,0A.33.33,0,0,0,232.7,372.46Zm-.26-11.22a.85.85,0,0,0-.35-.68l-7.18-4.14a.22.22,0,0,0-.25,0,.33.33,0,0,0-.1.27.85.85,0,0,0,.36.68l7.18,4.14a.22.22,0,0,0,.25,0A.33.33,0,0,0,232.44,361.24Zm-.62-2.42a.85.85,0,0,0-.35-.68l-4.83-2.79a.22.22,0,0,0-.25,0,.33.33,0,0,0-.1.27.85.85,0,0,0,.36.68l4.83,2.79a.22.22,0,0,0,.25,0A.33.33,0,0,0,231.83,358.82Zm-.09,11.35a.85.85,0,0,0-.35-.68l-1.29-.75a.22.22,0,0,0-.25,0,.33.33,0,0,0-.1.27.85.85,0,0,0,.36.68l1.29.75a.22.22,0,0,0,.25,0A.33.33,0,0,0,231.73,370.17Zm-1.28-6.36a.85.85,0,0,0-.36-.68l-7.69-4.44a.22.22,0,0,0-.25,0,.33.33,0,0,0-.1.27.85.85,0,0,0,.36.68l7.69,4.44a.22.22,0,0,0,.25,0A.33.33,0,0,0,230.45,363.81Zm-.09,11a.85.85,0,0,0-.36-.68l-7.69-4.44a.22.22,0,0,0-.25,0,.33.33,0,0,0-.1.27.85.85,0,0,0,.36.68l7.69,4.44a.22.22,0,0,0,.25,0A.33.33,0,0,0,230.36,374.86Zm-.16-1.91a.85.85,0,0,0-.35-.68l-3.62-2.09a.22.22,0,0,0-.25,0,.33.33,0,0,0-.1.27.85.85,0,0,0,.36.68l3.62,2.09a.22.22,0,0,0,.25,0A.33.33,0,0,0,230.2,372.94Zm-.95-4.2a.85.85,0,0,0-.35-.68l-2.63-1.52a.22.22,0,0,0-.25,0,.33.33,0,0,0-.1.27.85.85,0,0,0,.35.68L228.9,369a.22.22,0,0,0,.25,0A.33.33,0,0,0,229.25,368.74Zm-.47-4a.85.85,0,0,0-.35-.68l-1-.56a.22.22,0,0,0-.25,0,.33.33,0,0,0-.1.27.85.85,0,0,0,.36.68l1,.56a.22.22,0,0,0,.25,0A.33.33,0,0,0,228.78,364.74Zm-.09,11a.85.85,0,0,0-.35-.68l-1-.56a.22.22,0,0,0-.25,0,.33.33,0,0,0-.1.27.85.85,0,0,0,.36.68l1,.56a.22.22,0,0,0,.25,0A.33.33,0,0,0,228.69,375.79Zm-1-6.22a.85.85,0,0,0-.35-.68l-5-2.91a.22.22,0,0,0-.25,0,.33.33,0,0,0-.1.27.85.85,0,0,0,.35.68l5,2.91a.22.22,0,0,0,.25,0A.33.33,0,0,0,227.69,369.56Zm-.11-3.55a.85.85,0,0,0-.36-.68l-4.82-2.78a.22.22,0,0,0-.25,0,.33.33,0,0,0-.1.27.85.85,0,0,0,.36.68l4.82,2.78a.22.22,0,0,0,.25,0A.33.33,0,0,0,227.58,366Zm-1.2-2.66a.85.85,0,0,0-.35-.68l-3.62-2.09a.22.22,0,0,0-.25,0,.33.33,0,0,0-.1.27.85.85,0,0,0,.36.68l3.62,2.09a.22.22,0,0,0,.25,0A.33.33,0,0,0,226.38,363.35Zm-.09,11a.85.85,0,0,0-.35-.68l-3.62-2.09a.22.22,0,0,0-.25,0,.33.33,0,0,0-.1.27.85.85,0,0,0,.36.68l3.62,2.09a.22.22,0,0,0,.25,0A.33.33,0,0,0,226.29,374.4Zm-.56-19.1a.85.85,0,0,0-.36-.68l-3-1.71a.22.22,0,0,0-.25,0,.33.33,0,0,0-.1.27.85.85,0,0,0,.36.68l3,1.71a.22.22,0,0,0,.25,0A.33.33,0,0,0,225.73,355.3Zm-.33,3.76a.85.85,0,0,0-.35-.68l-2.63-1.52a.22.22,0,0,0-.25,0,.33.33,0,0,0-.1.27.85.85,0,0,0,.36.68l2.63,1.52a.22.22,0,0,0,.25,0A.33.33,0,0,0,225.4,359.05Zm0,7.46a.85.85,0,0,0-.35-.68l-2.63-1.52a.22.22,0,0,0-.25,0,.33.33,0,0,0-.1.27.85.85,0,0,0,.36.68l2.63,1.52a.22.22,0,0,0,.25,0A.33.33,0,0,0,225.4,366.52Zm-.09,3.58a.85.85,0,0,0-.35-.68l-2.63-1.52a.22.22,0,0,0-.25,0,.33.33,0,0,0-.1.27.85.85,0,0,0,.36.68l2.63,1.52a.22.22,0,0,0,.25,0A.33.33,0,0,0,225.31,370.1Zm-1.58-13.89a.85.85,0,0,0-.35-.68l-1-.56a.22.22,0,0,0-.25,0,.33.33,0,0,0-.1.27.85.85,0,0,0,.36.68l1,.56a.22.22,0,0,0,.25,0A.33.33,0,0,0,223.73,356.21Z"/>
				<path class="cls-39" d="M234.61,376.84a.85.85,0,0,1,.35.68.33.33,0,0,1-.1.27.22.22,0,0,1-.25,0L231,375.69a.85.85,0,0,1-.36-.68.33.33,0,0,1,.1-.27.22.22,0,0,1,.25,0Z"/>
				<path class="cls-40" d="M234.61,378.73a.85.85,0,0,1,.35.68.33.33,0,0,1-.1.27.22.22,0,0,1-.25,0l-4.82-2.78a.85.85,0,0,1-.35-.68.33.33,0,0,1,.1-.27.22.22,0,0,1,.25,0Z"/>
				<path class="cls-39" d="M234.75,368.16v0c0,.25-.18.35-.39.23l-4.52-2.61a.87.87,0,0,1-.39-.68v0c0-.25.18-.35.39-.23l4.52,2.61A.87.87,0,0,1,234.75,368.16Z"/>
				<path class="cls-40" d="M234.39,361.89a.85.85,0,0,1,.35.68.33.33,0,0,1-.1.27.22.22,0,0,1-.25,0l-1-.56a.85.85,0,0,1-.36-.68.33.33,0,0,1,.1-.27.22.22,0,0,1,.25,0Z"/>
				<path class="cls-41" d="M234,365.3a.91.91,0,0,1,.41.71.25.25,0,0,1-.41.24l-2.52-1.46a.91.91,0,0,1-.41-.71.25.25,0,0,1,.41-.24Z"/>
				<path class="cls-42" d="M233.31,370.61a.85.85,0,0,1,.35.68.33.33,0,0,1-.1.27.22.22,0,0,1-.25,0l-.47-.27a.85.85,0,0,1-.35-.68.33.33,0,0,1,.1-.27.22.22,0,0,1,.25,0Z"/>
				<path class="cls-40" d="M232.35,371.78a.85.85,0,0,1,.35.68.33.33,0,0,1-.1.27.22.22,0,0,1-.25,0l-3.77-2.18a.85.85,0,0,1-.36-.68.33.33,0,0,1,.1-.27.22.22,0,0,1,.25,0Z"/>
				<path class="cls-39" d="M232.09,360.56a.85.85,0,0,1,.35.68.33.33,0,0,1-.1.27.22.22,0,0,1-.25,0l-7.18-4.14a.85.85,0,0,1-.36-.68.33.33,0,0,1,.1-.27.22.22,0,0,1,.25,0Z"/>
				<path class="cls-42" d="M231.47,358.14a.85.85,0,0,1,.35.68.33.33,0,0,1-.1.27.22.22,0,0,1-.25,0l-4.83-2.79a.85.85,0,0,1-.36-.68.33.33,0,0,1,.1-.27.22.22,0,0,1,.25,0Z"/>
				<path class="cls-41" d="M231.38,369.5a.85.85,0,0,1,.35.68.33.33,0,0,1-.1.27.22.22,0,0,1-.25,0l-1.29-.75a.85.85,0,0,1-.36-.68.33.33,0,0,1,.1-.27.22.22,0,0,1,.25,0Z"/>
				<path class="cls-42" d="M230.1,363.13a.85.85,0,0,1,.36.68.33.33,0,0,1-.1.27.22.22,0,0,1-.25,0l-7.69-4.44a.85.85,0,0,1-.36-.68.33.33,0,0,1,.1-.27.22.22,0,0,1,.25,0Z"/>
				<path class="cls-43" d="M230,374.18a.85.85,0,0,1,.36.68.33.33,0,0,1-.1.27.22.22,0,0,1-.25,0l-7.69-4.44A.85.85,0,0,1,222,370a.33.33,0,0,1,.1-.27.22.22,0,0,1,.25,0Z"/>
				<path class="cls-44" d="M229.85,372.26a.85.85,0,0,1,.35.68.33.33,0,0,1-.1.27.22.22,0,0,1-.25,0l-3.62-2.09a.85.85,0,0,1-.36-.68.33.33,0,0,1,.1-.27.22.22,0,0,1,.25,0Z"/>
				<path class="cls-39" d="M228.9,368.06a.85.85,0,0,1,.35.68.33.33,0,0,1-.1.27.22.22,0,0,1-.25,0l-2.63-1.52a.85.85,0,0,1-.35-.68.33.33,0,0,1,.1-.27.22.22,0,0,1,.25,0Z"/>
				<path class="cls-43" d="M228.43,364.06a.85.85,0,0,1,.35.68.33.33,0,0,1-.1.27.22.22,0,0,1-.25,0l-1-.56a.85.85,0,0,1-.36-.68.33.33,0,0,1,.1-.27.22.22,0,0,1,.25,0Z"/>
				<path class="cls-44" d="M228.34,375.11a.85.85,0,0,1,.35.68.33.33,0,0,1-.1.27.22.22,0,0,1-.25,0l-1-.56a.85.85,0,0,1-.36-.68.33.33,0,0,1,.1-.27.22.22,0,0,1,.25,0Z"/>
				<path class="cls-39" d="M227.34,368.88a.85.85,0,0,1,.35.68.33.33,0,0,1-.1.27.22.22,0,0,1-.25,0l-5-2.91a.85.85,0,0,1-.35-.68.33.33,0,0,1,.1-.27.22.22,0,0,1,.25,0Z"/>
				<path class="cls-41" d="M227.23,365.34a.85.85,0,0,1,.36.68.33.33,0,0,1-.1.27.22.22,0,0,1-.25,0l-4.82-2.78a.85.85,0,0,1-.36-.68.33.33,0,0,1,.1-.27.22.22,0,0,1,.25,0Z"/>
				<path class="cls-40" d="M226,362.67a.85.85,0,0,1,.35.68.33.33,0,0,1-.1.27.22.22,0,0,1-.25,0l-3.62-2.09a.85.85,0,0,1-.36-.68.33.33,0,0,1,.1-.27.22.22,0,0,1,.25,0Z"/>
				<path class="cls-42" d="M225.94,373.72a.85.85,0,0,1,.35.68.33.33,0,0,1-.1.27.22.22,0,0,1-.25,0l-3.62-2.09a.85.85,0,0,1-.36-.68.33.33,0,0,1,.1-.27.22.22,0,0,1,.25,0Z"/>
				<path class="cls-43" d="M225.37,354.62a.85.85,0,0,1,.36.68.33.33,0,0,1-.1.27.22.22,0,0,1-.25,0l-3-1.71a.85.85,0,0,1-.36-.68.33.33,0,0,1,.1-.27.22.22,0,0,1,.25,0Z"/>
				<path class="cls-41" d="M225,358.38a.85.85,0,0,1,.35.68.33.33,0,0,1-.1.27.22.22,0,0,1-.25,0l-2.63-1.52a.85.85,0,0,1-.36-.68.33.33,0,0,1,.1-.27.22.22,0,0,1,.25,0Z"/>
				<path class="cls-44" d="M225,365.84a.85.85,0,0,1,.35.68.33.33,0,0,1-.1.27.22.22,0,0,1-.25,0l-2.63-1.52a.85.85,0,0,1-.36-.68.33.33,0,0,1,.1-.27.22.22,0,0,1,.25,0Z"/>
				<path class="cls-41" d="M225,369.42a.85.85,0,0,1,.35.68.33.33,0,0,1-.1.27.22.22,0,0,1-.25,0l-2.63-1.52a.85.85,0,0,1-.36-.68.33.33,0,0,1,.1-.27.22.22,0,0,1,.25,0Z"/>
				<path class="cls-44" d="M223.37,355.53a.85.85,0,0,1,.35.68.33.33,0,0,1-.1.27.22.22,0,0,1-.25,0l-1-.56a.85.85,0,0,1-.36-.68.33.33,0,0,1,.1-.27.22.22,0,0,1,.25,0Z"/>
			</g>
			<g id="fronttoaster">
				<path class="cls-11" d="M240.51,373.41h0l1.4-.83v24.36l-1.73,1,.29-25.1C240.5,373,240.51,373.21,240.51,373.41Z"/>
				<path class="cls-14" d="M240.49,372.82c-.23-5.44-3.53-11.61-7.56-13.94L215.72,349a4.92,4.92,0,0,0-4.8-.48l4.46-2.63h2.42c0,.2.45.4.69.55L239,358.22a2.12,2.12,0,0,0,1,.24,2.76,2.76,0,0,0,1.34-.33,1.09,1.09,0,0,0,.57-.67v15.13l-1.4.83h0C240.51,373.21,240.5,373,240.49,372.82Z"/>
				<path class="cls-9" d="M216.49,383.91l-1.45-.84-3.26-1.89v0l-3.63-2.13V354.68c0-3.13,1.07-5.32,2.75-6.2h0a4.92,4.92,0,0,1,4.8.48l17.21,9.94c4,2.33,7.33,8.49,7.56,13.94l-.29,25.1-2.82-1.66.25-.15-1.47-.84h0l-3.24-1.87v.25L216.41,384Z"/>
				<polygon class="cls-9" points="237.64 396.12 237.39 396.27 236.18 395.55 236.17 395.28 237.64 396.12"/>
				<polygon class="cls-45" points="237.39 396.27 236.18 396.97 236.18 395.55 237.39 396.27"/>
				<polygon class="cls-46" points="236.18 395.55 236.18 396.97 232.92 395 232.93 393.65 236.18 395.55"/>
				<polygon class="cls-9" points="236.18 395.55 232.93 393.65 232.93 393.4 236.17 395.27 236.17 395.28 236.18 395.55"/>
				<polygon class="cls-14" points="215.04 383.07 216.49 383.91 216.41 383.95 215.04 383.14 215.04 383.07"/>
				<polygon class="cls-45" points="215.04 383.14 216.41 383.95 215.04 384.74 215.04 383.14"/>
				<polygon class="cls-46" points="215.04 383.14 215.04 384.74 211.78 382.77 211.78 381.23 215.04 383.14"/>
				<polygon class="cls-14" points="211.78 381.19 215.04 383.07 215.04 383.14 211.78 381.23 211.78 381.19"/>
			</g>
			<g id="switch">
				<polygon class="cls-20" points="254.24 391.77 254.24 393.26 249.07 396.24 249.07 394.75 254.24 391.77"/>
				<polygon class="cls-9" points="254.24 391.77 249.07 394.75 245.2 391.02 250.36 388.04 254.24 391.77"/>
				<polygon class="cls-21" points="249.07 394.75 249.07 396.24 245.2 394 245.2 391.02 249.07 394.75"/>
			</g>
		</g>
	</g>
</svg>
