<?xml version="1.0" encoding="UTF-8" standalone="no" ?>
<!DOCTYPE svg PUBLIC "-//W3C//DTD SVG 1.1//EN" "http://www.w3.org/Graphics/SVG/1.1/DTD/svg11.dtd">
<svg xmlns="http://www.w3.org/2000/svg" version="1.1" width="5000" height="2000" viewBox="-560 -131.43 5000 2000"
     xml:space="preserve">
    <a href="https://www.linkedin.com/in/kenty-wang/" target="_blank">
    <style type="text/css">
        path {
            fill: #778899;
        }
         a:hover path {
            fill: white;
            transition: fill .2s;
        }
         a:not(:hover) path {
            fill: #778899;
            transition: fill .2s;
        }
    </style>
    <g transform="matrix(5.87 0 0 5.87 1932.32 2539.47)">
		<g transform="matrix(1 0 0 -1 -296.12 395.14)" clip-path="url(#CLIPPATH_5)">
<clipPath id="CLIPPATH_5">
	<path transform="matrix(1 0 0 1 0 0) translate(0, 0)" d="" stroke-linecap="round"/>
</clipPath>
            <path style="stroke: none; stroke-width: 1; stroke-dasharray: none; stroke-linecap: butt; stroke-dashoffset: 0; stroke-linejoin: miter; stroke-miterlimit: 4; fill-rule: nonzero; opacity: 1;"
                  vector-effect="non-scaling-stroke" transform=" translate(0, 0)" d="" stroke-linecap="round"/>
</g>
        <g transform="matrix(1 0 0 -1 1.2 -289.96)">
<path style="stroke: none; stroke-width: 1; stroke-dasharray: none; stroke-linecap: butt; stroke-dashoffset: 0; stroke-linejoin: miter; stroke-miterlimit: 4; fill-rule: nonzero; opacity: 1;"
      vector-effect="non-scaling-stroke" transform=" translate(-297.32, -685.1)"
      d="M 435.8997 789.9989 C 428.4203 789.0396 415.74 786.3551 412.8426 785.1176 C 390.8084 775.7071 357.5764 755.6547 354.2937 749.7888 C 352.9827 747.4462 352.0736 747.6176 343.4325 751.8368 C 338.2458 754.3693 332.8306 756.8356 331.3989 757.3174 C 328.1992 758.3941 328.0282 761.7482 331.0453 764.2522 C 332.8323 765.7353 332.9241 766.5662 331.492 768.2918 C 329.9546 770.1442 329.13 769.7975 325.8953 765.9385 L 322.1016 761.4127 L 313.1763 765.2388 C 291.3061 774.6141 252.9989 781.1672 219.4603 781.2706 C 189.7253 781.3622 179.7305 778.5335 167.3813 766.5315 C 159.0371 758.4218 155.8281 751.8396 156.0221 743.2316 C 156.1795 736.245 156.112 736.1437 146.9127 729.5656 C 141.8153 725.9206 136.3695 721.5201 134.8109 719.7868 C 133.2523 718.0534 130.7816 716.6352 129.3204 716.6352 C 127.8591 716.6352 126.2499 715.9658 125.7442 715.1477 C 125.2386 714.3295 124.0276 713.6814 123.0532 713.7074 C 121.984 713.736 122.2159 714.4731 123.6384 715.5669 C 124.9346 716.5635 126.4401 719.1663 126.9839 721.3508 C 127.5277 723.5353 131.0789 728.429 134.8755 732.2256 C 139.8704 737.2205 141.329 739.5782 140.1521 740.755 C 138.9753 741.9319 137.1704 741.354 133.6225 738.6643 C 128.6601 734.9022 107.2713 727.3137 92.27423 723.9943 C 80.44152 721.3753 73.89139 718.5066 71.68793 714.9784 C 68.78591 710.3315 70.80309 709.7744 77.30325 713.4277 C 80.50508 715.2273 88.36305 718.0248 94.7654 719.6446 C 101.1677 721.2643 110.5807 724.048 115.6832 725.8306 C 120.7856 727.6132 125.3873 728.6447 125.9093 728.1227 C 126.4312 727.6008 125.1014 725.0859 122.9542 722.5341 C 120.807 719.9823 119.0502 717.2765 119.0502 716.5211 C 119.0502 715.7657 117.2094 715.1332 114.9595 715.1155 C 108.4153 715.064 85.49845 709.6137 68.51863 704.0705 C 26.92971 690.4934 9.80264 677.2761 4.013158 654.2902 C 2.150075 646.8932 1.956847 643.3886 3.151973 638.6709 C 10.3899 610.099 44.36846 616.8736 78.98991 653.7913 C 90.95408 666.549 117.5627 703.5422 117.5627 707.4179 C 117.5627 708.3967 119.2894 709.1974 121.3998 709.1974 C 125.6785 709.1974 125.6788 709.2217 121.1624 690.8007 C 119.9855 686.0005 118.3493 674.286 117.5265 664.7684 C 116.2971 650.5484 116.4299 645.9347 118.2717 638.8854 C 121.6738 625.864 127.4222 615.8001 137.3827 605.4273 C 147.4823 594.9096 156.8208 589.0311 171.1147 584.1932 C 187.3717 578.6909 225.5555 578.451 243.1316 583.7406 C 249.5412 585.6697 241.4448 586.8246 231.3607 585.4197 C 214.5695 583.0803 184.0112 584.7335 172.8439 588.5854 C 148.4096 597.0135 132.721 613.1479 124.2714 638.5385 C 121.3269 647.3866 121.9582 662.5782 126.3368 688.2413 C 127.8919 697.3556 128.8473 706.0247 128.46 707.5058 C 128.0086 709.2318 129.0608 711.0539 131.3903 712.5802 C 133.3892 713.89 139.4139 718.6852 144.7784 723.2362 C 150.1429 727.7872 154.8683 731.5108 155.2793 731.5108 C 155.6903 731.5108 157.0847 730.4527 158.3779 729.1595 C 161.1247 726.4128 160.1842 724.073 156.3335 724.073 C 154.8456 724.073 152.8629 723.1507 151.9273 722.0234 C 150.5922 720.4147 150.8613 719.8076 153.178 719.2018 C 154.8015 718.7773 156.9057 719.3649 157.8542 720.5077 C 160.1166 723.2338 163.6769 723.1719 163.6769 720.4064 C 163.6769 719.208 165.0408 717.4975 166.7078 716.6054 C 169.6046 715.0551 169.4565 714.6872 163.3608 708.2913 C 156.8161 701.4243 155.6472 698.7339 158.7579 697.697 C 159.7341 697.3716 162.3192 699.8047 164.5025 703.1039 C 166.6858 706.4031 169.5687 709.4479 170.9091 709.8702 C 174.6846 711.0595 182.2194 708.5096 182.7279 705.8705 C 183.3157 702.8199 177.6018 700.9498 174.7993 703.2757 C 173.0827 704.7003 172.3354 704.2891 170.8946 701.1269 C 169.5376 698.1486 169.5264 696.8028 170.8473 695.4818 C 172.1683 694.1608 173.7369 694.5875 177.4266 697.2716 C 180.0912 699.2099 182.8067 701.6821 183.461 702.7653 C 184.1152 703.8485 186.3329 704.7348 188.389 704.7348 C 191.4122 704.7348 192.0385 704.0943 191.6621 701.3878 C 190.9771 696.4614 196.6784 696.2209 202.8346 700.9165 C 209.1642 705.7443 211.6131 705.841 210.4526 701.2175 C 208.9898 695.3893 213.4238 695.3196 220.5397 701.0588 C 230.1492 708.8092 238.5242 712.7506 242.9975 711.6279 C 246.5537 710.7353 246.7138 710.3328 245.299 705.8422 C 243.8683 701.3011 236.6158 686.4842 230.2512 675.0999 C 224.2436 664.3539 215.5278 652.6588 210.8919 649.1228 C 204.7483 644.4369 197.7931 641.76 196.1168 643.4363 C 193.6267 645.9264 207.3824 666.7774 225.2452 687.589 C 236.7414 700.9832 240.301 705.9595 239.1843 707.0761 C 236.8723 709.3882 212.6001 681.6494 200.0384 662.3394 C 190.8284 648.1817 188.8816 641.7155 193.1426 639.4351 C 201.9433 634.7251 220.5783 648.4198 230.7129 667.0452 C 234.3609 673.7497 234.8199 674.0616 241.2124 674.1818 C 250.0129 674.3472 259.0618 680.2148 274.4599 695.7407 C 283.0219 704.3739 287.0554 707.4664 288.9636 706.8608 C 290.4173 706.3993 291.6067 706.6382 291.6067 707.3915 C 291.6067 708.1448 296.8238 715.3859 303.2001 723.483 C 318.9631 743.4996 325.0031 752.1623 323.9386 753.2268 C 322.3772 754.7882 319.7715 752.2399 314.4947 743.9909 C 311.6739 739.5813 309.0519 735.9734 308.6679 735.9734 C 308.284 735.9734 307.9699 738.294 307.9699 741.1303 C 307.9699 748.6614 316.5614 757.0694 323.5268 756.3549 C 326.2649 756.074 330.2205 754.7202 332.317 753.3466 C 334.4135 751.9729 336.7822 750.849 337.5808 750.849 C 338.3795 750.849 339.4773 750.13 340.0204 749.2513 C 341.3068 747.1699 335.7547 741.3325 328.1423 736.7626 C 321.2222 732.6085 287.44 698.8645 293.0943 701.7543 C 295.1397 702.7997 301.8337 708.7873 307.9699 715.0602 C 320.9522 728.3317 331.7708 737.0789 331.7708 734.3041 C 331.7708 733.2485 323.2359 723.9317 312.8044 713.6002 C 302.3729 703.2687 291.8757 692.529 289.4773 689.7342 C 287.0789 686.9394 282.2258 681.4007 278.6925 677.426 C 275.1593 673.4513 272.2685 669.2465 272.2685 668.0821 C 272.2685 663.4874 276.8733 664.5231 284.6652 670.8703 C 294.2488 678.677 299.2343 684.3177 308.0227 697.297 C 319.669 714.4973 338.4834 735.4331 347.8284 741.5911 C 350.9909 743.6751 351.5379 743.5697 355.2662 740.1587 C 362.0084 733.9904 385.4296 719.3933 392.3899 717.0217 C 395.9957 715.7931 398.391 714.2628 397.7127 713.6211 C 395.2941 711.333 370.3145 692.8343 369.6434 692.8343 C 367.4321 692.8343 369.6683 697.7553 374.1316 702.7111 C 376.9762 705.8695 379.3191 708.9162 379.3381 709.4815 C 379.4161 711.8078 375.9485 712.3475 371.845 710.6478 C 366.9232 708.6091 366.307 706.9877 369.9263 705.5989 C 372.1304 704.7531 372.0736 704.3201 369.3684 701.3489 C 363.2075 694.5824 361.0265 686.8841 365.2703 686.8841 C 368.1365 686.8841 377.7464 692.9495 381.4626 697.104 C 385.1528 701.2296 387.3513 701.1425 386.2897 696.9127 C 384.7827 690.9082 387.2245 689.0667 394.0012 691.097 C 398.2535 692.371 402.3555 695.5786 408.4568 702.4003 C 415.2246 709.9674 418.722 712.5617 425.4745 715.0238 C 430.1491 716.7282 434.4071 718.1228 434.9367 718.1228 C 435.4664 718.1228 435.8997 713.4975 435.8997 707.8443 L 435.8997 697.5659 L 425.0392 691.6053 C 409.4985 683.0761 392.2813 669.7853 379.2111 656.2284 C 361.4069 637.7612 356.8817 625.3953 364.9687 617.309 C 368.5741 613.7039 370.0914 613.262 378.539 613.3567 C 386.0872 613.4414 390.0392 614.4427 397.6886 618.2084 C 408.3035 623.4342 421.9839 636.7625 428.9721 648.687 C 433.8906 657.0798 438.8748 675.7253 438.8748 685.7323 C 438.8748 693.7457 440.8453 698.7845 443.9791 698.7845 C 445.0926 698.7845 453.2692 702.1841 462.1494 706.3392 C 489.9747 719.3589 512.6195 726.0152 537.6743 728.5391 C 563.3139 731.122 577.7171 728.6077 583.9279 720.4648 C 595.261 705.6064 577.5111 678.1285 545.958 661.6851 C 512.9079 644.4615 484.1353 642.4109 452.0343 654.9912 C 441.8743 658.9729 439.7099 659.3921 441.1236 657.1047 C 442.4987 654.8798 454.6693 649.1213 464.907 645.8517 C 471.7358 643.6708 478.2002 643.0012 492.4268 643.0012 C 514.7008 643.0012 525.3218 645.7913 548.1261 657.6334 C 559.6919 663.6395 565.2702 667.7093 573.7054 676.2958 C 596.46 699.4587 598.4155 720.627 578.7051 730.4172 C 572.6569 733.4213 570.0019 733.7215 551.1853 733.5284 C 528.0752 733.2911 516.7497 731.3298 492.3577 723.341 C 475.674 717.8767 448.7887 705.9643 444.444 702.1112 C 443.0072 700.837 441.5671 700.0693 441.2438 700.4052 C 440.9205 700.7411 440.4294 705.0391 440.1525 709.9564 L 439.6489 718.8969 L 449.0779 728.3259 C 461.4379 740.6859 467.8194 753.7373 467.8562 766.7311 C 467.8851 776.9832 465.0753 782.2958 457.1773 786.9217 C 452.7655 789.5057 443.0308 790.9136 435.8997 789.9989 M 455.9817 782.2391 C 462.3083 778.6455 464.9165 770.297 462.7677 760.5181 C 459.0968 743.8127 442.7658 723.9547 432.0013 723.1069 C 429.0298 722.8729 424.8423 721.5097 422.6957 720.0776 C 420.4132 718.5547 415.3479 717.3155 410.4952 717.0927 C 403.3555 716.765 400.605 717.5263 390.7843 722.5487 C 384.5069 725.759 377.0084 730.1875 374.1211 732.3897 C 371.2338 734.592 366.0464 737.9026 362.5934 739.7467 C 359.1405 741.5907 356.1331 744.0064 355.9103 745.1148 C 355.6875 746.2232 358.3651 748.9209 361.8606 751.1097 C 365.356 753.2984 373.1417 758.4463 379.162 762.5494 C 385.1825 766.6526 397.0405 773.0456 405.5131 776.7562 C 427.6876 786.4674 445.1902 788.3689 455.9817 782.2391 M 249.9552 775.4742 C 276.4964 772.2813 315.2526 762.6888 316.392 759.0306 C 317.2196 756.3733 306.7803 750.8492 300.9248 750.8458 C 292.5041 750.841 262.0639 733.6131 259.7301 727.5313 C 259.1417 725.9978 257.6334 725.5861 254.791 726.1832 C 252.5404 726.656 249.6981 726.401 248.4749 725.6167 C 246.5552 724.3857 246.6355 723.9091 249.0615 722.1352 C 251.7808 720.1468 251.7583 720.0001 248.3711 717.6276 C 244.0417 714.5952 241.0613 716.712 244.0974 720.663 C 245.5056 722.4955 244.9975 722.3352 242.4724 720.1501 C 235.1959 713.8535 218.7165 707.3619 218.7165 710.7921 C 218.7165 711.7003 221.0502 715.1698 223.9026 718.5022 C 227.9088 723.1826 228.71 725.0173 227.4241 726.5667 C 225.2894 729.1388 223.2669 727.5155 217.2061 718.3654 C 214.6914 714.5689 211.1575 710.6419 209.3531 709.6389 C 205.524 707.5106 198.421 707.136 197.2679 709.0017 C 196.2515 710.6462 205.7742 724.1033 219.8038 740.8482 C 229.7277 752.6928 232.0502 757.748 226.999 756.5097 C 225.9799 756.2599 220.8457 750.7003 215.5897 744.155 C 195.3484 718.9489 191.9161 713.9669 192.9447 711.2864 C 193.7284 709.2442 193.38 708.8976 191.3333 709.683 C 189.8971 710.2341 187.1033 710.685 185.1248 710.685 C 181.0625 710.685 180.3466 713.8033 183.7589 716.6352 C 184.9862 717.6537 185.9903 719.4092 185.9903 720.5362 C 185.9903 723.9257 181.9682 722.8496 178.9015 718.6397 C 175.4713 713.9309 172.1618 715.106 173.5276 720.5478 C 174.4181 724.0961 174.219 724.2323 169.4422 723.3414 C 164.6384 722.4454 164.3495 722.6505 162.7778 728.0734 C 160.3837 736.3341 161.1941 751.7463 164.1969 755.0644 C 165.5472 756.5565 166.652 758.5396 166.652 759.4714 C 166.652 761.6446 181.8455 773.1623 184.7123 773.1623 C 185.9061 773.1623 187.5187 773.7802 188.296 774.5354 C 191.7557 777.897 225.5402 778.4114 249.9552 775.4742 M 304.907 741.3807 C 304.7805 738.9495 299.1619 728.6889 292.8834 719.4234 C 278.0832 697.582 239.5423 669.3925 239.5423 680.4088 C 239.5423 685.7909 263.2273 710.1044 289.6567 731.8529 C 296.7654 737.7026 299.8983 741.5657 298.5926 742.8715 C 297.4152 744.0488 269.9248 721.8071 259.6319 711.3496 C 257.1733 708.8517 253.2554 704.287 250.9256 701.206 C 248.5957 698.125 246.3128 695.9809 245.8523 696.4413 C 244.1807 698.113 253.2105 718.1681 256.4046 719.8775 C 258.161 720.8175 261.6108 723.5993 264.0708 726.0593 C 268.8509 730.8394 279.7902 738.1916 290.9554 744.1282 C 297.3669 747.5373 298.0469 747.6214 301.404 745.4218 C 303.3789 744.1278 304.9552 742.3093 304.907 741.3807 M 345.9826 742.0533 C 344.8295 740.1875 340.6961 739.8535 340.6961 741.6262 C 340.6961 742.2807 341.4994 743.6195 342.4812 744.6013 C 344.5608 746.6809 347.5143 744.5316 345.9826 742.0533 M 412.0988 710.733 C 412.0988 708.6188 392.7745 694.1377 391.2283 695.0933 C 388.9551 696.4982 389.4901 698.2053 393.8147 703.3448 C 399.7766 710.4301 412.0988 715.4092 412.0988 710.733 M 114.5876 710.0092 C 114.5876 709.6375 111.4079 705.0102 107.5217 699.7263 C 103.6354 694.4423 97.77819 686.2628 94.50557 681.5494 C 86.61868 670.1905 70.65312 651.9178 61.41934 643.682 C 48.86848 632.4875 38.57869 627.1471 27.91024 626.2908 C 19.37569 625.6057 18.1301 625.8898 13.84053 629.4992 C 4.167233 637.6387 6.470192 657.0965 18.81743 671.5491 C 26.94667 681.0644 33.18297 685.2627 49.67153 692.3201 C 70.3195 701.1578 114.5876 713.2205 114.5876 710.0092 M 221.6916 707.0878 C 221.6916 704.4929 219.4479 701.7597 217.3177 701.7597 C 213.6876 701.7597 212.5121 703.3799 214.4489 705.7136 C 215.9435 707.5144 221.6916 708.6051 221.6916 707.0878 M 200.122 703.2472 C 199.6164 702.4291 198.2381 701.7597 197.0591 701.7597 C 195.8802 701.7597 194.9156 702.4291 194.9156 703.2472 C 194.9156 704.0654 196.2939 704.7348 197.9785 704.7348 C 199.6631 704.7348 200.6277 704.0654 200.122 703.2472 M 305.8995 699.1564 C 302.4367 692.5576 280.9661 670.9801 280.1182 673.2466 C 279.7104 674.3366 281.7869 677.6836 284.7325 680.6844 C 287.6782 683.6852 293.719 689.9894 298.1565 694.6938 C 307.0631 704.1362 309.1413 705.3339 305.8995 699.1564 M 434.9864 684.9349 C 433.2444 673.1303 428.6176 657.7862 424.6705 650.7241 C 412.4386 628.8389 388.6179 614.2453 372.4251 618.7163 C 364.789 620.8248 363.6642 624.5553 367.8893 633.7611 C 374.2361 647.59 392.724 665.1635 420.2803 683.561 C 427.6438 688.477 434.1718 692.1995 434.7872 691.8332 C 435.4026 691.4669 435.4922 688.3627 434.9864 684.9349 M 154.2893 714.9779 C 152.8079 714.1162 150.5719 713.804 149.3206 714.2842 C 145.6962 715.675 138.2739 710.4282 137.3463 705.8195 C 136.89 703.5525 135.9337 701.3375 135.2212 700.8971 C 132.7383 699.3626 133.9479 695.8094 136.9533 695.8094 C 140.0321 695.8094 147.1647 699.7038 149.1505 702.4691 C 151.3327 705.508 150.2129 706.3378 146.9828 704.0753 C 143.4826 701.6237 139.8637 701.011 139.8944 702.8753 C 139.9299 705.0259 150.5923 710.8869 152.8754 710.0108 C 155.4521 709.022 161.0782 713.3352 159.8352 715.3465 C 158.815 716.9971 157.6245 716.918 154.2893 714.9779 M 352.8014 709.9756 C 350.8687 708.896 346.1599 704.9323 342.3374 701.1673 C 338.5149 697.4023 334.9084 694.3219 334.3229 694.3219 C 331.9889 694.3219 333.466 698.4611 336.9772 701.7597 C 342.6339 707.0739 341.7857 709.1974 334.0064 709.1974 C 328.4162 709.1974 326.3433 708.3181 321.3946 703.8472 C 306.9609 690.8072 306.2694 679.4769 320.4965 689.1317 C 325.4211 692.4736 326.2386 692.6288 328.2615 690.6058 C 330.2845 688.5829 330.9922 688.6203 334.9833 690.9615 C 337.4367 692.4006 342.8565 696.7577 347.0272 700.644 C 351.198 704.5302 355.1614 707.7099 355.8348 707.7099 C 358.2393 707.7099 356.9977 703.4024 353.3403 699.0558 C 351.2949 696.625 349.6214 693.8961 349.6214 692.9915 C 349.6214 689.4621 353.6718 691.6387 358.293 697.6515 C 366.1376 707.8581 362.7243 715.5181 352.8014 709.9756 M 333.2583 704.1069 C 333.2583 701.2518 321.5033 691.3468 318.115 691.3468 C 313.8161 691.3468 314.9021 693.6241 322.3111 700.1457 C 329.4296 706.4117 333.2583 707.7971 333.2583 704.1069 M 277.3577 692.1841 C 273.4151 687.6648 268.008 682.9321 265.3419 681.667 C 262.6758 680.4018 260.1204 678.7615 259.6632 678.0217 C 258.0455 675.4042 261.8278 674.8929 266.176 677.1414 C 272.1966 680.2548 288.8621 695.8618 288.2207 697.786 C 287.0108 701.4157 284.103 699.9162 277.3577 692.1841"
      stroke-linecap="round"/>
</g>
</g>
    </a>
</svg>
